<svg width="32" height="32" viewBox="0 0 32 32" fill="none" xmlns="http://www.w3.org/2000/svg">
<g clip-path="url(#clip0_62_674)">
<path d="M16.7909 31.0107L16.7762 31.0134L16.6816 31.0601L16.6549 31.0654L16.6362 31.0601L16.5416 31.0134C16.5273 31.009 16.5167 31.0112 16.5096 31.0201L16.5042 31.0334L16.4816 31.6041L16.4882 31.6307L16.5016 31.6481L16.6402 31.7467L16.6602 31.7521L16.6762 31.7467L16.8149 31.6481L16.8309 31.6267L16.8362 31.6041L16.8136 31.0347C16.81 31.0205 16.8025 31.0125 16.7909 31.0107ZM17.1442 30.8601L17.1269 30.8627L16.8802 30.9867L16.8669 31.0001L16.8629 31.0147L16.8869 31.5881L16.8936 31.6041L16.9042 31.6134L17.1722 31.7374C17.1891 31.7419 17.202 31.7383 17.2109 31.7267L17.2162 31.7081L17.1709 30.8894C17.1665 30.8734 17.1576 30.8636 17.1442 30.8601ZM16.1909 30.8627C16.185 30.8592 16.178 30.858 16.1713 30.8595C16.1646 30.861 16.1587 30.865 16.1549 30.8707L16.1469 30.8894L16.1016 31.7081C16.1025 31.7241 16.11 31.7347 16.1242 31.7401L16.1442 31.7374L16.4122 31.6134L16.4256 31.6027L16.4309 31.5881L16.4536 31.0147L16.4496 30.9987L16.4362 30.9854L16.1909 30.8627Z" stroke="white"/>
<path d="M19.04 2.66675C19.5997 2.66689 20.1451 2.84313 20.5991 3.17049C21.053 3.49785 21.3925 3.95975 21.5693 4.49075L22.2933 6.66675H26.6667C27.0203 6.66675 27.3594 6.80722 27.6095 7.05727C27.8595 7.30732 28 7.64646 28 8.00008C28 8.3537 27.8595 8.69284 27.6095 8.94289C27.3594 9.19294 27.0203 9.33341 26.6667 9.33341L26.6627 9.42808L25.5067 25.6187C25.4345 26.6276 24.9829 27.5716 24.2427 28.2608C23.5025 28.95 22.5287 29.3333 21.5173 29.3334H10.4827C9.47128 29.3333 8.49748 28.95 7.75729 28.2608C7.0171 27.5716 6.56548 26.6276 6.49333 25.6187L5.33733 9.42675L5.33333 9.33341C4.97971 9.33341 4.64057 9.19294 4.39052 8.94289C4.14048 8.69284 4 8.3537 4 8.00008C4 7.64646 4.14048 7.30732 4.39052 7.05727C4.64057 6.80722 4.97971 6.66675 5.33333 6.66675H9.70667L10.4307 4.49075C10.6076 3.95953 10.9472 3.49748 11.4015 3.1701C11.8557 2.84272 12.4014 2.66661 12.9613 2.66675H19.04ZM23.996 9.33341H8.004L9.15333 25.4281C9.17727 25.7644 9.3277 26.0791 9.57435 26.3089C9.82099 26.5387 10.1455 26.6666 10.4827 26.6667H21.5173C21.8545 26.6666 22.179 26.5387 22.4257 26.3089C22.6723 26.0791 22.8227 25.7644 22.8467 25.4281L23.996 9.33341ZM13.3333 13.3334C13.6599 13.3335 13.9751 13.4534 14.2192 13.6704C14.4632 13.8874 14.6191 14.1864 14.6573 14.5107L14.6667 14.6667V21.3334C14.6663 21.6733 14.5362 22.0001 14.3029 22.2472C14.0696 22.4944 13.7507 22.6431 13.4115 22.663C13.0722 22.6829 12.7382 22.5725 12.4776 22.3544C12.217 22.1363 12.0495 21.8269 12.0093 21.4894L12 21.3334V14.6667C12 14.3131 12.1405 13.974 12.3905 13.7239C12.6406 13.4739 12.9797 13.3334 13.3333 13.3334ZM18.6667 13.3334C19.0203 13.3334 19.3594 13.4739 19.6095 13.7239C19.8595 13.974 20 14.3131 20 14.6667V21.3334C20 21.687 19.8595 22.0262 19.6095 22.2762C19.3594 22.5263 19.0203 22.6667 18.6667 22.6667C18.313 22.6667 17.9739 22.5263 17.7239 22.2762C17.4738 22.0262 17.3333 21.687 17.3333 21.3334V14.6667C17.3333 14.3131 17.4738 13.974 17.7239 13.7239C17.9739 13.4739 18.313 13.3334 18.6667 13.3334ZM19.04 5.33341H12.96L12.516 6.66675H19.484L19.04 5.33341Z" fill="black" stroke="white"/>
</g>
<defs>
<clipPath id="clip0_62_674">
<rect width="32" height="32" fill="white"/>
</clipPath>
</defs>
</svg>
