<svg width="32" height="32" viewBox="0 0 32 32" fill="none" xmlns="http://www.w3.org/2000/svg">
<path d="M4.34321 29.4123H11.5161V19.5486C11.5161 19.1044 11.667 18.732 11.9688 18.4315C12.2693 18.1297 12.6416 17.9788 13.0859 17.9788H18.9144C19.3586 17.9788 19.7316 18.1297 20.0334 18.4315C20.3339 18.732 20.4842 19.1044 20.4842 19.5486V29.4123H27.6571V12.5253C27.6571 12.3259 27.6137 12.1445 27.5269 11.9813C27.4401 11.8181 27.3216 11.6757 27.1713 11.5539L16.7112 3.66994C16.5117 3.49639 16.2747 3.40961 16.0001 3.40961C15.7255 3.40961 15.4892 3.49639 15.291 3.66994L4.82892 11.5539C4.67997 11.6782 4.56145 11.8207 4.47338 11.9813C4.38531 12.1419 4.34192 12.3233 4.34321 12.5253V29.4123ZM2.40039 29.4123V12.5253C2.40039 12.028 2.51178 11.5571 2.73456 11.1129C2.95733 10.6686 3.2643 10.3027 3.65545 10.0152L14.1175 2.09238C14.6654 1.67402 15.291 1.46484 15.9943 1.46484C16.6976 1.46484 17.3271 1.67402 17.8827 2.09238L28.3448 10.0133C28.7373 10.3008 29.0442 10.6673 29.2657 11.1129C29.4885 11.5571 29.5999 12.028 29.5999 12.5253V29.4123C29.5999 29.933 29.4062 30.387 29.019 30.7742C28.6317 31.1615 28.1777 31.3551 27.6571 31.3551H20.1111C19.6656 31.3551 19.2926 31.2049 18.9921 30.9044C18.6916 30.6026 18.5413 30.2296 18.5413 29.7853V19.9236H13.4589V29.7853C13.4589 30.2309 13.3087 30.6039 13.0082 30.9044C12.7077 31.2049 12.3353 31.3551 11.8911 31.3551H4.34321C3.82254 31.3551 3.36856 31.1615 2.98129 30.7742C2.59402 30.387 2.40039 29.933 2.40039 29.4123Z" fill="#010101"/>
</svg>
