<svg width="32" height="32" viewBox="0 0 32 32" fill="none" xmlns="http://www.w3.org/2000/svg">
<path d="M26.6668 26.6666L21.2668 21.2666M21.2668 21.2666C22.1335 20.3998 22.8211 19.3709 23.2901 18.2385C23.7592 17.106 24.0006 15.8923 24.0006 14.6666C24.0006 13.4408 23.7592 12.2271 23.2901 11.0947C22.8211 9.96225 22.1335 8.9333 21.2668 8.06657C20.4001 7.19985 19.3711 6.51233 18.2387 6.04326C17.1063 5.57419 15.8926 5.33276 14.6668 5.33276C13.4411 5.33276 12.2274 5.57419 11.0949 6.04326C9.96249 6.51233 8.93354 7.19985 8.06682 8.06657C6.31639 9.817 5.33301 12.1911 5.33301 14.6666C5.33301 17.1421 6.31639 19.5161 8.06682 21.2666C9.81725 23.017 12.1913 24.0004 14.6668 24.0004C17.1423 24.0004 19.5164 23.017 21.2668 21.2666Z" stroke="black" stroke-width="3" stroke-linecap="round" stroke-linejoin="round"/>
</svg>
