<svg width="41" height="40" viewBox="0 0 41 40" fill="none" xmlns="http://www.w3.org/2000/svg">
<path d="M25.5 35C24.5833 35 23.7989 34.6739 23.1467 34.0217C22.4944 33.3694 22.1678 32.5844 22.1667 31.6667V25C22.1667 24.0833 22.4933 23.2989 23.1467 22.6467C23.8 21.9944 24.5844 21.6678 25.5 21.6667H32.1667C33.0833 21.6667 33.8683 21.9933 34.5217 22.6467C35.175 23.3 35.5011 24.0844 35.5 25V31.6667C35.5 32.5833 35.1739 33.3683 34.5217 34.0217C33.8694 34.675 33.0844 35.0011 32.1667 35H25.5ZM25.5 18.3333C24.5833 18.3333 23.7989 18.0072 23.1467 17.355C22.4944 16.7028 22.1678 15.9178 22.1667 15V8.33333C22.1667 7.41667 22.4933 6.63222 23.1467 5.98C23.8 5.32778 24.5844 5.00111 25.5 5H32.1667C33.0833 5 33.8683 5.32667 34.5217 5.98C35.175 6.63333 35.5011 7.41778 35.5 8.33333V15C35.5 15.9167 35.1739 16.7017 34.5217 17.355C33.8694 18.0083 33.0844 18.3344 32.1667 18.3333H25.5ZM8.83333 18.3333C7.91667 18.3333 7.13222 18.0072 6.48 17.355C5.82778 16.7028 5.50111 15.9178 5.5 15V8.33333C5.5 7.41667 5.82667 6.63222 6.48 5.98C7.13333 5.32778 7.91778 5.00111 8.83333 5H15.5C16.4167 5 17.2017 5.32667 17.855 5.98C18.5083 6.63333 18.8344 7.41778 18.8333 8.33333V15C18.8333 15.9167 18.5072 16.7017 17.855 17.355C17.2028 18.0083 16.4178 18.3344 15.5 18.3333H8.83333ZM8.83333 35C7.91667 35 7.13222 34.6739 6.48 34.0217C5.82778 33.3694 5.50111 32.5844 5.5 31.6667V25C5.5 24.0833 5.82667 23.2989 6.48 22.6467C7.13333 21.9944 7.91778 21.6678 8.83333 21.6667H15.5C16.4167 21.6667 17.2017 21.9933 17.855 22.6467C18.5083 23.3 18.8344 24.0844 18.8333 25V31.6667C18.8333 32.5833 18.5072 33.3683 17.855 34.0217C17.2028 34.675 16.4178 35.0011 15.5 35H8.83333Z" fill="#777777"/>
</svg>
