<svg width="14" height="14" viewBox="0 0 14 14" fill="none" xmlns="http://www.w3.org/2000/svg">
<path d="M6.58594 9.16425C6.64142 9.21736 6.70684 9.25898 6.77844 9.28675C6.84827 9.31761 6.92377 9.33355 7.00011 9.33355C7.07645 9.33355 7.15195 9.31761 7.22177 9.28675C7.29338 9.25898 7.3588 9.21736 7.41428 9.16425L9.74761 6.83091C9.85745 6.72107 9.91916 6.57209 9.91916 6.41675C9.91916 6.26141 9.85745 6.11243 9.74761 6.00258C9.63776 5.89274 9.48878 5.83103 9.33344 5.83103C9.1781 5.83103 9.02912 5.89274 8.91928 6.00258L7.58344 7.34425V1.75008C7.58344 1.59537 7.52198 1.447 7.41259 1.3376C7.30319 1.22821 7.15482 1.16675 7.00011 1.16675C6.8454 1.16675 6.69703 1.22821 6.58763 1.3376C6.47823 1.447 6.41678 1.59537 6.41678 1.75008V7.34425L5.08094 6.00258C5.02655 5.94819 4.96198 5.90505 4.89092 5.87561C4.81986 5.84618 4.74369 5.83103 4.66678 5.83103C4.58986 5.83103 4.51369 5.84618 4.44263 5.87561C4.37157 5.90505 4.307 5.94819 4.25261 6.00258C4.19822 6.05697 4.15508 6.12154 4.12564 6.1926C4.0962 6.26367 4.08105 6.33983 4.08105 6.41675C4.08105 6.49367 4.0962 6.56983 4.12564 6.64089C4.15508 6.71196 4.19822 6.77653 4.25261 6.83091L6.58594 9.16425Z" fill="#47566B"/>
<path d="M12.2501 8.16699C12.0954 8.16699 11.947 8.22845 11.8376 8.33785C11.7282 8.44724 11.6667 8.59562 11.6667 8.75033V11.0837C11.6667 11.2384 11.6053 11.3867 11.4959 11.4961C11.3865 11.6055 11.2381 11.667 11.0834 11.667H2.91675C2.76204 11.667 2.61367 11.6055 2.50427 11.4961C2.39487 11.3867 2.33341 11.2384 2.33341 11.0837V8.75033C2.33341 8.59562 2.27196 8.44724 2.16256 8.33785C2.05316 8.22845 1.90479 8.16699 1.75008 8.16699C1.59537 8.16699 1.447 8.22845 1.3376 8.33785C1.22821 8.44724 1.16675 8.59562 1.16675 8.75033V11.0837C1.16675 11.5478 1.35112 11.9929 1.67931 12.3211C2.0075 12.6493 2.45262 12.8337 2.91675 12.8337H11.0834C11.5475 12.8337 11.9927 12.6493 12.3209 12.3211C12.649 11.9929 12.8334 11.5478 12.8334 11.0837V8.75033C12.8334 8.59562 12.772 8.44724 12.6626 8.33785C12.5532 8.22845 12.4048 8.16699 12.2501 8.16699Z" fill="#47566B"/>
</svg>
