<svg width="41" height="42" viewBox="0 0 41 42" fill="none" xmlns="http://www.w3.org/2000/svg">
<path d="M24.4717 5.11475L36.8269 17.47M24.4717 17.47L36.8269 5.11475M5.05634 11.2924C5.05634 12.1036 5.21613 12.9069 5.52659 13.6564C5.83704 14.4059 6.29208 15.0869 6.86572 15.6606C7.43937 16.2342 8.12038 16.6893 8.86988 16.9997C9.61938 17.3102 10.4227 17.47 11.2339 17.47C12.0452 17.47 12.8485 17.3102 13.598 16.9997C14.3475 16.6893 15.0285 16.2342 15.6022 15.6606C16.1758 15.0869 16.6309 14.4059 16.9413 13.6564C17.2518 12.9069 17.4116 12.1036 17.4116 11.2924C17.4116 10.4811 17.2518 9.67779 16.9413 8.92828C16.6309 8.17878 16.1758 7.49777 15.6022 6.92412C15.0285 6.35048 14.3475 5.89544 13.598 5.58499C12.8485 5.27453 12.0452 5.11475 11.2339 5.11475C10.4227 5.11475 9.61938 5.27453 8.86988 5.58499C8.12038 5.89544 7.43937 6.35048 6.86572 6.92412C6.29208 7.49777 5.83704 8.17878 5.52659 8.92828C5.21613 9.67779 5.05634 10.4811 5.05634 11.2924ZM4.17383 36.8853H18.2941L11.2339 24.5301L4.17383 36.8853ZM24.4717 24.5301H36.8269V36.8853H24.4717V24.5301Z" stroke="#777777" stroke-width="1.63265" stroke-linecap="round" stroke-linejoin="round"/>
</svg>
