<svg width="41" height="40" viewBox="0 0 41 40" fill="none" xmlns="http://www.w3.org/2000/svg">
<g clip-path="url(#clip0_548_1478)">
<path d="M13.7852 22.5625C14.6057 22.5625 15.3926 22.2366 15.9728 21.6564C16.553 21.0762 16.8789 20.2893 16.8789 19.4688C16.8789 18.6482 16.553 17.8613 15.9728 17.2811C15.3926 16.7009 14.6057 16.375 13.7852 16.375C12.9646 16.375 12.1777 16.7009 11.5975 17.2811C11.0174 17.8613 10.6914 18.6482 10.6914 19.4688C10.6914 20.2893 11.0174 21.0762 11.5975 21.6564C12.1777 22.2366 12.9646 22.5625 13.7852 22.5625Z" fill="#777777"/>
<path d="M33.3789 30.8125C33.3789 31.9065 32.9443 32.9557 32.1707 33.7293C31.3971 34.5029 30.3479 34.9375 29.2539 34.9375H8.62891C7.53489 34.9375 6.48568 34.5029 5.71209 33.7293C4.9385 32.9557 4.50391 31.9065 4.50391 30.8125V14.3125C4.50391 13.2192 4.93794 12.1706 5.71063 11.3971C6.48333 10.6237 7.53148 10.1886 8.62478 10.1875C8.62478 9.09348 9.05938 8.04427 9.83297 7.27068C10.6066 6.4971 11.6558 6.0625 12.7498 6.0625H33.3748C34.4688 6.0625 35.518 6.4971 36.2916 7.27068C37.0652 8.04427 37.4998 9.09348 37.4998 10.1875V26.6875C37.4998 27.7808 37.0658 28.8294 36.2931 29.6029C35.5204 30.3763 34.4722 30.8114 33.3789 30.8125ZM33.3748 8.125H12.7498C12.2028 8.125 11.6782 8.3423 11.2914 8.72909C10.9046 9.11589 10.6873 9.64049 10.6873 10.1875H29.2539C30.3479 10.1875 31.3971 10.6221 32.1707 11.3957C32.9443 12.1693 33.3789 13.2185 33.3789 14.3125V28.75C33.9252 28.7489 34.4487 28.5311 34.8346 28.1445C35.2206 27.7578 35.4373 27.2338 35.4373 26.6875V10.1875C35.4373 9.64049 35.22 9.11589 34.8332 8.72909C34.4464 8.3423 33.9218 8.125 33.3748 8.125ZM8.62891 12.25C8.0819 12.25 7.55729 12.4673 7.1705 12.8541C6.7837 13.2409 6.56641 13.7655 6.56641 14.3125V30.8125L12.0238 25.9574C12.1924 25.7894 12.4138 25.6849 12.6507 25.6616C12.8875 25.6383 13.1251 25.6976 13.3232 25.8295L18.8094 29.4863L26.4613 21.8344C26.6142 21.6813 26.8114 21.5802 27.025 21.5455C27.2386 21.5107 27.4577 21.5439 27.6513 21.6406L31.3164 25.6562V14.3125C31.3164 13.7655 31.0991 13.2409 30.7123 12.8541C30.3255 12.4673 29.8009 12.25 29.2539 12.25H8.62891Z" fill="#777777"/>
</g>
<defs>
<clipPath id="clip0_548_1478">
<rect width="33" height="33" fill="white" transform="translate(4.5 4)"/>
</clipPath>
</defs>
</svg>
