<svg width="41" height="40" viewBox="0 0 41 40" fill="none" xmlns="http://www.w3.org/2000/svg">
<g clip-path="url(#clip0_548_245)">
<path d="M6.7605 34.7147H36.3698C36.9951 34.7147 37.5 35.2262 37.5 35.8582C37.5009 36.1593 37.3825 36.4485 37.1706 36.6625C36.9588 36.8765 36.6708 36.9978 36.3698 37H5.63025C5.32917 36.9978 5.0412 36.8765 4.82938 36.6625C4.61755 36.4485 4.49912 36.1593 4.5 35.8582V5.1418C4.5 4.5115 5.0049 4 5.63025 4C6.25395 4 6.75885 4.5115 6.75885 5.1418L6.7605 34.7147ZM9.1794 32.71L13.7219 23.5195L18.266 25.8163L23.9453 18.9209L28.4894 22.3694L35.3055 12.0272V32.71H9.1794Z" fill="#777777"/>
</g>
<defs>
<clipPath id="clip0_548_245">
<rect width="33" height="33" fill="white" transform="translate(4.5 4)"/>
</clipPath>
</defs>
</svg>
