<svg width="41" height="40" viewBox="0 0 41 40" fill="none" xmlns="http://www.w3.org/2000/svg">
<path d="M13.4867 35.4168H27.5133C29.0604 35.4168 30.5441 34.8022 31.6381 33.7083C32.7321 32.6143 33.3467 31.1306 33.3467 29.5835V20.3668C33.3472 18.8199 32.7333 17.3361 31.64 16.2418L21.6917 6.29183C21.1499 5.75017 20.5068 5.32051 19.7991 5.02739C19.0913 4.73428 18.3327 4.58344 17.5667 4.5835H13.4867C11.9396 4.5835 10.4558 5.19808 9.36186 6.29204C8.2679 7.386 7.65332 8.86973 7.65332 10.4168V29.5835C7.65332 31.1306 8.2679 32.6143 9.36186 33.7083C10.4558 34.8022 11.9396 35.4168 13.4867 35.4168Z" stroke="#777777" stroke-width="1.22449" stroke-linecap="round" stroke-linejoin="round"/>
<path fill-rule="evenodd" clip-rule="evenodd" d="M17.895 11.9016C17.4966 12.0316 17.2416 12.2949 17.1683 12.5866C17.0183 13.1733 17.1683 13.8033 17.59 14.5916C17.8 14.9816 18.0566 15.3766 18.34 15.7999L18.4933 16.0283L18.735 16.3866L18.7666 16.2733L18.91 15.7633C19.0744 15.2044 19.2022 14.6377 19.2933 14.0633C19.4416 12.9933 19.275 12.3666 18.7783 11.9633C18.645 11.8549 18.315 11.7649 17.895 11.9016ZM17.9866 18.8216L17.5366 18.2183L17.4833 18.1383C17.2916 17.8216 17.0783 17.5049 16.8466 17.1633L16.68 16.9149C16.3733 16.469 16.0885 16.0085 15.8266 15.5349C15.31 14.5716 14.8966 13.3916 15.23 12.0899C15.5133 10.9833 16.3933 10.2883 17.275 9.99992C18.1366 9.71992 19.2316 9.75492 20.0416 10.4116C21.3616 11.4849 21.455 13.0333 21.2733 14.3399C21.1721 15.0011 21.0268 15.6548 20.8383 16.2966L20.6783 16.8633C20.5539 17.2877 20.4383 17.7149 20.3316 18.1449L20.22 18.4683L22.54 21.5749C23.6233 21.4449 24.8133 21.3666 25.9233 21.4466C27.205 21.5366 28.5816 21.8499 29.52 22.7399C29.8219 23.0532 30.0404 23.4372 30.1554 23.8568C30.2704 24.2764 30.2783 24.7182 30.1783 25.1416C29.9833 25.9416 29.4216 26.6083 28.6466 27.0133C27.005 27.8716 25.4766 27.1883 24.3416 26.3199C23.4533 25.6416 22.6 24.6949 21.8816 23.8983L21.7083 23.7083C21.0916 23.8033 20.5083 23.9099 20.035 23.9999C19.5266 24.0949 18.895 24.2133 18.2083 24.3666L17.9566 25.1049C17.8177 25.4249 17.6855 25.7471 17.56 26.0716L17.3566 26.5766C17.1514 27.0966 16.9137 27.6031 16.645 28.0933C16.095 29.0566 15.2166 30.0799 13.7433 30.1616C11.77 30.2716 10.4333 28.5199 10.8166 26.6483L10.8266 26.6033C11.16 25.2849 12.3166 24.4199 13.435 23.8483C14.43 23.3383 15.5916 22.9616 16.67 22.6799L17.9866 18.8216ZM19.4366 20.7633L18.9583 22.1683L19.66 22.0349L19.6666 22.0333L20.3 21.9166L19.4366 20.7633ZM24.17 23.4366C24.6266 23.9199 25.0816 24.3699 25.555 24.7316C26.4716 25.4316 27.1216 25.5533 27.72 25.2399C28.0533 25.0649 28.1933 24.8383 28.235 24.6699C28.2552 24.5797 28.2536 24.4859 28.2304 24.3963C28.2072 24.3068 28.1631 24.224 28.1016 24.1549C27.6733 23.7749 26.8983 23.5216 25.7816 23.4416C25.245 23.4074 24.7068 23.4058 24.17 23.4366ZM15.8283 25.0149C15.2983 25.1966 14.795 25.3983 14.345 25.6283C13.3666 26.1283 12.895 26.6349 12.7716 27.0733C12.6416 27.7649 13.0916 28.1949 13.6316 28.1649C14.0816 28.1399 14.475 27.8583 14.9083 27.0999C15.135 26.6866 15.3339 26.2605 15.505 25.8216L15.6833 25.3783L15.8283 25.0149Z" fill="#777777"/>
</svg>
