<svg width="41" height="40" viewBox="0 0 41 40" fill="none" xmlns="http://www.w3.org/2000/svg">
<path d="M25.1434 36.6668H18.0001C12.5467 36.6668 9.82174 36.6668 7.92841 35.3368C7.38913 34.9608 6.90694 34.5089 6.49674 33.9952C5.08008 32.2185 5.08008 29.6618 5.08008 24.5452V20.3035C5.08008 15.3652 5.08008 12.8952 5.86341 10.9235C7.12508 7.75016 9.79008 5.25016 13.1701 4.06683C15.2717 3.3335 17.9034 3.3335 23.1667 3.3335C26.1751 3.3335 27.6784 3.3335 28.8801 3.7535C30.8101 4.43016 32.3334 5.8585 33.0551 7.67016C33.5017 8.79683 33.5017 10.2085 33.5017 13.0302V16.6668" stroke="#777777" stroke-width="1.22449" stroke-linecap="round" stroke-linejoin="round"/>
<path d="M5.17773 20.0002C5.17773 18.5269 5.76299 17.114 6.80476 16.0722C7.84652 15.0304 9.25946 14.4452 10.7327 14.4452C11.8427 14.4452 13.1494 14.6385 14.2294 14.3502C14.7006 14.2234 15.1301 13.9749 15.475 13.6297C15.8199 13.2846 16.068 12.8548 16.1944 12.3835C16.4827 11.3052 16.2877 9.99683 16.2877 8.88683C16.288 8.15734 16.4319 7.43503 16.7112 6.76115C16.9906 6.08727 17.3999 5.47501 17.9159 4.95934C18.4319 4.44366 19.0444 4.03467 19.7185 3.75571C20.3925 3.47675 21.1149 3.33328 21.8444 3.3335M12.5077 29.8585V22.5002C12.5077 22.2791 12.5955 22.0672 12.7518 21.9109C12.9081 21.7546 13.1201 21.6668 13.3411 21.6668H15.3877C16.2044 21.6668 17.0327 22.0285 17.3211 22.7768C17.5544 23.3802 17.5444 23.9218 17.3211 24.5368C17.0277 25.3418 16.1544 25.7635 15.2827 25.7635H13.3444M30.0644 21.6668H32.9894M32.9894 21.6668H35.9161M32.9894 21.6668V30.0002M21.7044 29.8585V22.5002C21.7044 22.2791 21.7922 22.0672 21.9485 21.9109C22.1048 21.7546 22.3167 21.6668 22.5377 21.6668H24.3077C25.2711 21.6668 26.2411 22.1885 26.4061 23.1185C26.4727 23.4985 26.4727 23.8668 26.3994 24.2635C26.2277 25.2135 25.2494 25.7635 24.2661 25.7635H21.7044" stroke="#777777" stroke-width="1.22449" stroke-linecap="round" stroke-linejoin="round"/>
</svg>
